<?xml version="1.0" encoding="UTF-8"?>
<svg version="1.1" xmlns="http://www.w3.org/2000/svg" width="1179" height="753">
<path d="M0 0 C389.07 0 778.14 0 1179 0 C1179 248.49 1179 496.98 1179 753 C789.93 753 400.86 753 0 753 C0 504.51 0 256.02 0 0 Z " fill="#000000" transform="translate(0,0)"/>
<path d="M0 0 C0 1.65 0 3.3 0 5 C-0.99 5 -1.98 5 -3 5 C-3.18175781 5.72445312 -3.36351562 6.44890625 -3.55078125 7.1953125 C-4.92167755 12.46799057 -6.30679941 17.25483705 -9 22 C-9.66 22 -10.32 22 -11 22 C-11 22.99 -11 23.98 -11 25 C-11.66 25 -12.32 25 -13 25 C-13.10957031 25.60585937 -13.21914063 26.21171875 -13.33203125 26.8359375 C-14.16829111 31.25519693 -15.11500849 35.53097801 -16.5 39.8125 C-18.36840359 45.75914493 -19.17866805 51.83517904 -20 58 C-20.66 58 -21.32 58 -22 58 C-21.979375 59.27875 -21.95875 60.5575 -21.9375 61.875 C-21.875 65.75 -21.875 65.75 -23 68 C-23.97053454 83.03299186 -23.37374632 98.05818494 -20.41455078 112.82080078 C-19.98448123 115.08157865 -19.63778932 117.34355872 -19.30859375 119.62109375 C-18.25452145 126.71461275 -17.14524665 132.9564455 -13.19140625 139.09375 C-11.61438283 141.61698747 -10.72682229 144.23398616 -9.75 147.03125 C-8.94930056 149.13308602 -7.97964227 151.07016918 -6.9375 153.0625 C-5.11107176 156.61078997 -3.9704146 160.11834159 -3 164 C-2.79375 164.804375 -2.5875 165.60875 -2.375 166.4375 C-2.25125 166.953125 -2.1275 167.46875 -2 168 C-1.34 168 -0.68 168 0 168 C0.268125 168.70125 0.53625 169.4025 0.8125 170.125 C1.99045269 173.07450644 1.99045269 173.07450644 3.5625 176.125 C5 179 5 179 6 182 C6.99 182 7.98 182 9 182 C9 182.99 9 183.98 9 185 C9.66 185 10.32 185 11 185 C11 185.66 11 186.32 11 187 C11.99 187 12.98 187 14 187 C14.433125 187.928125 14.86625 188.85625 15.3125 189.8125 C16.7445373 192.51745934 17.85186916 193.9541611 20 196 C20 196.66 20 197.32 20 198 C20.99 198.33 21.98 198.66 23 199 C23.474375 200.155 23.94875 201.31 24.4375 202.5 C25.2109375 204.2325 25.2109375 204.2325 26 206 C27.93618425 206.67156616 27.93618425 206.67156616 30 207 C31.38232443 208.62626404 32.71937515 210.2925002 34 212 C34.66 212.33 35.32 212.66 36 213 C36 213.66 36 214.32 36 215 C36.57234375 215.11472656 37.1446875 215.22945312 37.734375 215.34765625 C40.21471656 216.06182356 42.06368697 217.07307872 44.25 218.4375 C44.95640625 218.86933594 45.6628125 219.30117188 46.390625 219.74609375 C47.18726563 220.36677734 47.18726563 220.36677734 48 221 C48 221.66 48 222.32 48 223 C48.66 223 49.32 223 50 223 C50 223.99 50 224.98 50 226 C50.7425 226.0825 51.485 226.165 52.25 226.25 C55.54876544 227.1496633 56.61937042 228.61937042 59 231 C61.64184541 231.79681318 61.64184541 231.79681318 64 232 C64 232.66 64 233.32 64 234 C66.31 234.33 68.62 234.66 71 235 C71 235.66 71 236.32 71 237 C72.11375 237.185625 72.11375 237.185625 73.25 237.375 C75.80141485 237.95486701 77.7267573 238.73708739 80 240 C80 240.66 80 241.32 80 242 C81.12148438 242.07347656 81.12148438 242.07347656 82.265625 242.1484375 C83.25046875 242.22320312 84.2353125 242.29796875 85.25 242.375 C86.22453125 242.44460938 87.1990625 242.51421875 88.203125 242.5859375 C90.93248584 242.99000489 92.59789973 243.718207 95 245 C96.155 245.165 97.31 245.33 98.5 245.5 C101.55062716 245.93580388 103.40293659 246.44176195 106 248 C106 248.66 106 249.32 106 250 C107.32064453 250.07347656 107.32064453 250.07347656 108.66796875 250.1484375 C110.41013672 250.26058594 110.41013672 250.26058594 112.1875 250.375 C113.33605469 250.44460938 114.48460937 250.51421875 115.66796875 250.5859375 C119 251 119 251 121.03808594 252.00268555 C125.55211317 253.52261641 129.98925472 253.34583977 134.72265625 253.37109375 C135.77795029 253.38012222 136.83324432 253.3891507 137.92051697 253.39845276 C140.1606056 253.41295682 142.4007366 253.42184238 144.64086914 253.42553711 C147.99898659 253.43727794 151.35516943 253.48632864 154.71289062 253.53710938 C171.10445245 253.66047971 185.96634312 251.74758485 201 245 C210.07154213 241.52305246 210.07154213 241.52305246 215 242 C215 241.34 215 240.68 215 240 C216.43570266 239.18432826 217.87363434 238.37257907 219.3125 237.5625 C220.11300781 237.11003906 220.91351562 236.65757812 221.73828125 236.19140625 C224 235 224 235 227 234 C227 233.34 227 232.68 227 232 C228.65 232 230.3 232 232 232 C232 233.65 232 235.3 232 237 C231.34 237.33 230.68 237.66 230 238 C229.59270772 240.32156597 229.25561323 242.6568787 229 245 C228.34 245 227.68 245 227 245 C226.896875 246.010625 226.79375 247.02125 226.6875 248.0625 C225.96295233 252.21218208 224.77730734 255.21356263 223 259 C222.34 259 221.68 259 221 259 C220.896875 259.680625 220.79375 260.36125 220.6875 261.0625 C219.85274981 264.62915989 218.50527246 267.66222194 217 271 C216.34 271 215.68 271 215 271 C214.979375 271.969375 214.95875 272.93875 214.9375 273.9375 C214.22019301 279.2412244 210.65705349 283.2753797 207 287 C206.34 287 205.68 287 205 287 C204.67 287.99 204.34 288.98 204 290 C203.34 290 202.68 290 202 290 C201.9071875 291.3303125 201.9071875 291.3303125 201.8125 292.6875 C200.80792399 296.7830791 199.01246634 298.13448324 196 301 C195.67 301.886875 195.34 302.77375 195 303.6875 C194 306 194 306 191.4375 307.125 C190.2309375 307.558125 190.2309375 307.558125 189 308 C188.67 308.99 188.34 309.98 188 311 C186.33333333 312 184.66666667 313 183 314 C182.67 314.99 182.34 315.98 182 317 C181.34 317 180.68 317 180 317 C179.67 317.99 179.34 318.98 179 320 C178.21625 320.0825 177.4325 320.165 176.625 320.25 C173.8553382 320.70849401 173.8553382 320.70849401 172.875 323 C172.58625 323.66 172.2975 324.32 172 325 C171.01 325.33 170.02 325.66 169 326 C169 326.66 169 327.32 169 328 C168.01 328 167.02 328 166 328 C165.67 328.99 165.34 329.98 165 331 C161.69233487 333.95327243 158.09343766 335.59294268 153.75 336.4375 C153.1725 336.623125 152.595 336.80875 152 337 C151.67 337.99 151.34 338.98 151 340 C148.3828125 341.53515625 148.3828125 341.53515625 145.125 343.0625 C141.90824121 344.58561591 138.96456363 346.02362425 136 348 C135.01 348 134.02 348 133 348 C133 348.66 133 349.32 133 350 C131.75336669 350.50833591 130.50250613 351.00631145 129.25 351.5 C128.55390625 351.7784375 127.8578125 352.056875 127.140625 352.34375 C125 353 125 353 121 353 C121 353.66 121 354.32 121 355 C116.38575062 356.46217773 111.76628018 357.90574521 107.14111328 359.33300781 C105.27595107 359.91403668 103.41670405 360.51398711 101.55859375 361.1171875 C74.42141442 369.54244895 32.81815587 373.16240703 6 362 C4.906875 361.87625 3.81375 361.7525 2.6875 361.625 C-1.16711106 360.97167609 -3.68214517 359.74657324 -7.0703125 357.9140625 C-9.63443582 356.69947777 -12.21032081 356.40824573 -15 356 C-15.33 355.34 -15.66 354.68 -16 354 C-17.7862884 353.26598743 -19.60514816 352.60998969 -21.4375 352 C-26.78473581 350.21526419 -26.78473581 350.21526419 -29 348 C-30.98821313 347.60235737 -32.98944339 347.26224651 -35 347 C-35 346.34 -35 345.68 -35 345 C-35.886875 344.731875 -36.77375 344.46375 -37.6875 344.1875 C-40.80789038 343.06886949 -43.33172267 341.96196863 -46 340 C-46 339.01 -46 338.02 -46 337 C-48.97 336.67 -51.94 336.34 -55 336 C-55 335.34 -55 334.68 -55 334 C-55.556875 333.9175 -56.11375 333.835 -56.6875 333.75 C-59.69256318 332.77538491 -61.57254822 330.99175531 -64 329 C-64.99 328.67 -65.98 328.34 -67 328 C-68.68711423 326.3540349 -70.3545622 324.68762851 -72 323 C-72.66 322.67 -73.32 322.34 -74 322 C-74.625 319.4375 -74.625 319.4375 -75 317 C-75.66 317 -76.32 317 -77 317 C-77 316.34 -77 315.68 -77 315 C-77.99 314.67 -78.98 314.34 -80 314 C-80 313.34 -80 312.68 -80 312 C-80.7425 312 -81.485 312 -82.25 312 C-85.52984992 310.8073273 -85.78898905 310.08221883 -87.3125 307.0625 C-89 303.38735178 -89 303.38735178 -89 301 C-89.66 301 -90.32 301 -91 301 C-91.495 299.515 -91.495 299.515 -92 298 C-92.66 297.67 -93.32 297.34 -94 297 C-94 296.34 -94 295.68 -94 295 C-94.99 295 -95.98 295 -97 295 C-99.10770759 292.11165997 -100 290.61537605 -100 287 C-100.66 287 -101.32 287 -102 287 C-102 286.01 -102 285.02 -102 284 C-102.66 284 -103.32 284 -104 284 C-104.33 282.35 -104.66 280.7 -105 279 C-105.99 278.67 -106.98 278.34 -108 278 C-108 277.34 -108 276.68 -108 276 C-108.66 276 -109.32 276 -110 276 C-110 274.35 -110 272.7 -110 271 C-110.99 270.67 -111.98 270.34 -113 270 C-114.4477922 267.10441559 -115 265.25811062 -115 262 C-115.99 262 -116.98 262 -118 262 C-118.96277259 259.64756508 -119.92028498 257.29320381 -120.875 254.9375 C-121.14441406 254.28072266 -121.41382813 253.62394531 -121.69140625 252.94726562 C-123.41286157 248.68561405 -124.76655715 244.43359577 -126 240 C-126.46899431 238.59944859 -126.94472617 237.20114227 -127.42578125 235.8046875 C-133.60392792 217.32079243 -135.57467906 199.68363524 -135.5 180.3125 C-135.49817719 179.37126282 -135.49635437 178.43002563 -135.49447632 177.46026611 C-135.48156817 174.73994068 -135.44928219 172.02078536 -135.40625 169.30078125 C-135.39749344 168.49545456 -135.38873688 167.69012787 -135.37971497 166.86039734 C-135.26169829 162.06214944 -134.62656637 157.65961492 -133.45678711 153.00263977 C-132.76662479 149.97683962 -132.64094825 146.96881398 -132.5 143.875 C-132.14623012 138.11537804 -131.67814645 133.15886391 -128.9375 128 C-127.57679791 125.09716888 -127.36484498 122.16198979 -127 119 C-126.34 119 -125.68 119 -125 119 C-124.7525 117.741875 -124.505 116.48375 -124.25 115.1875 C-121.09887746 101.08566794 -121.09887746 101.08566794 -116 96 C-114.7877051 93.51098207 -114.7877051 93.51098207 -113.8125 90.8125 C-113.46832031 89.91144531 -113.12414062 89.01039063 -112.76953125 88.08203125 C-112.38861328 87.05142578 -112.38861328 87.05142578 -112 86 C-111.34 86 -110.68 86 -110 86 C-110 85.01 -110 84.02 -110 83 C-108.66666667 81.66666667 -107.33333333 80.33333333 -106 79 C-104.74563813 76.36777038 -104.74563813 76.36777038 -104 74 C-103.34 74 -102.68 74 -102 74 C-101.7525 73.29875 -101.505 72.5975 -101.25 71.875 C-99.82819762 68.60485452 -98.12753712 65.858878 -96 63 C-95.34 63 -94.68 63 -94 63 C-93.731875 62.360625 -93.46375 61.72125 -93.1875 61.0625 C-92 59 -92 59 -89 58 C-87.78130071 55.49552484 -87.78130071 55.49552484 -87 53 C-86.34 53 -85.68 53 -85 53 C-85 52.01 -85 51.02 -85 50 C-83.37064759 48.62131719 -81.70250393 47.28725907 -80 46 C-79.505 45.01 -79.505 45.01 -79 44 C-78.34 44 -77.68 44 -77 44 C-77 43.34 -77 42.68 -77 42 C-71.52380952 37 -71.52380952 37 -69 37 C-68.91492188 36.38125 -68.82984375 35.7625 -68.7421875 35.125 C-68 33 -68 33 -66.2578125 31.875 C-65.20207031 31.441875 -65.20207031 31.441875 -64.125 31 C-60.66935512 29.44710807 -59.22657025 28.07478749 -57 25 C-54.3125 24.25 -54.3125 24.25 -52 24 C-52 23.34 -52 22.68 -52 22 C-51.01 22 -50.02 22 -49 22 C-49 21.34 -49 20.68 -49 20 C-46.49881715 18.3703727 -43.90043556 16.97337595 -41.28515625 15.53515625 C-38.70760157 14.14137297 -38.70760157 14.14137297 -38 11 C-35.36 11 -32.72 11 -30 11 C-30 10.01 -30 9.02 -30 8 C-28.845 7.731875 -27.69 7.46375 -26.5 7.1875 C-21.04669101 5.81935534 -15.90887663 4.07374311 -11 1.3125 C-7.06889878 -0.40735678 -4.26145669 -0.22042017 0 0 Z " fill="#FDFDFD" transform="translate(541,185)"/>
<path d="M0 0 C0.33 0 0.66 0 1 0 C1.25 7.625 1.25 7.625 -1 11 C-1.39387788 13.32387947 -1.73486085 15.65793749 -2 18 C-2.66 18 -3.32 18 -4 18 C-4.06058594 19.21558594 -4.12117188 20.43117188 -4.18359375 21.68359375 C-4.26798332 23.26824228 -4.3526321 24.85287702 -4.4375 26.4375 C-4.49647461 27.64116211 -4.49647461 27.64116211 -4.55664062 28.86914062 C-4.88671875 34.88671875 -4.88671875 34.88671875 -6 36 C-7.19557634 42.12372207 -7.12865945 48.18110643 -7.09765625 54.40234375 C-7.0962413 55.48004532 -7.09482635 56.55774689 -7.09336853 57.66810608 C-7.08779611 61.09126629 -7.07524868 64.51435975 -7.0625 67.9375 C-7.05748144 70.26627509 -7.05291915 72.59505122 -7.04882812 74.92382812 C-7.03783571 80.61590798 -7.02112514 86.30794922 -7 92 C-6.34 92 -5.68 92 -5 92 C-4.46626918 95.24801825 -3.95028732 98.49861491 -3.4375 101.75 C-3.28603516 102.67039062 -3.13457031 103.59078125 -2.97851562 104.5390625 C-2.83994141 105.42851562 -2.70136719 106.31796875 -2.55859375 107.234375 C-2.36221313 108.45979004 -2.36221313 108.45979004 -2.16186523 109.70996094 C-1.99568117 112.06110207 -2.29740455 113.76426496 -3 116 C-3.61074796 113.81432836 -4.21310237 111.62631157 -4.8125 109.4375 C-5.14894531 108.21933594 -5.48539062 107.00117188 -5.83203125 105.74609375 C-6.22701189 104.16546555 -6.6155261 102.58321667 -7 101 C-7.26240479 99.97519531 -7.52480957 98.95039063 -7.79516602 97.89453125 C-10.18184763 87.57374588 -10.42958327 77.55738346 -10.33618164 66.99121094 C-10.3123632 64.10844356 -10.31567376 61.22659249 -10.32226562 58.34375 C-10.31669358 56.4817654 -10.30958669 54.61978462 -10.30078125 52.7578125 C-10.30169266 51.91074738 -10.30260406 51.06368225 -10.30354309 50.19094849 C-10.24560529 45.25665597 -9.67622169 40.7727028 -8.460495 35.98657227 C-7.76064699 32.96743274 -7.64073398 29.96411092 -7.5 26.875 C-7.14623012 21.11537804 -6.67814645 16.15886391 -3.9375 11 C-2.57679791 8.09716888 -2.36484498 5.16198979 -2 2 C-1.34 2 -0.68 2 0 2 C0 1.34 0 0.68 0 0 Z " fill="#D7D7D7" transform="translate(416,302)"/>
<path d="M0 0 C0.33 0 0.66 0 1 0 C1.04254356 1.99954746 1.04080783 4.00041636 1 6 C0.67 6.33 0.34 6.66 0 7 C-0.29091691 10.36170656 -0.44894485 13.72402686 -0.62109375 17.09375 C-0.90188392 19.98849404 -1.29928778 22.35978343 -2.00488281 25.13427734 C-3.11850664 30.04549636 -3.3061838 34.73666263 -3.30078125 39.7578125 C-3.30506638 40.6639328 -3.3093515 41.5700531 -3.31376648 42.50363159 C-3.31947514 44.41126679 -3.32003581 46.31892374 -3.31567383 48.2265625 C-3.31253094 51.09674695 -3.33595773 53.96588126 -3.36132812 56.8359375 C-3.39876101 67.62927925 -2.69704679 77.52648211 0 88 C0.2050415 88.82306641 0.41008301 89.64613281 0.62133789 90.49414062 C1.11466749 92.39959589 1.64868027 94.2944054 2.1875 96.1875 C3.29236139 100.07313613 4 102.94272415 4 107 C3.34 107 2.68 107 2 107 C-0.58374281 102.61887088 -1.35079045 99.10100304 -1.75390625 94.1484375 C-1.93933069 91.83638119 -1.93933069 91.83638119 -3 89.125 C-4.25982427 85.18804915 -4.48207942 81.40365607 -4.75390625 77.29296875 C-4.75337154 75.03742447 -4.75337154 75.03742447 -6 74 C-6.09813987 72.56259647 -6.1279828 71.12043673 -6.12939453 69.6796875 C-6.13254669 68.76203613 -6.13569885 67.84438477 -6.13894653 66.89892578 C-6.1369223 65.90103027 -6.13489807 64.90313477 -6.1328125 63.875 C-6.13376923 62.85776855 -6.13472595 61.84053711 -6.13571167 60.79248047 C-6.13639361 58.63704364 -6.13453835 56.48160478 -6.13037109 54.32617188 C-6.12502305 51.01427629 -6.13031563 47.70251633 -6.13671875 44.390625 C-6.13605797 42.30208303 -6.13477681 40.21354115 -6.1328125 38.125 C-6.13483673 37.12710449 -6.13686096 36.12920898 -6.13894653 35.10107422 C-6.13579437 34.18342285 -6.13264221 33.26577148 -6.12939453 32.3203125 C-6.12859894 31.50836426 -6.12780334 30.69641602 -6.12698364 29.85986328 C-6 28 -6 28 -5 27 C-4.80919592 25.51184022 -4.67670541 24.01609608 -4.5703125 22.51953125 C-4.49683594 21.60236328 -4.42335938 20.68519531 -4.34765625 19.74023438 C-4.20073972 17.80841088 -4.05998162 15.87610787 -3.92578125 13.94335938 C-3.48928292 8.64249412 -2.85173941 4.63602444 0 0 Z " fill="#686868" transform="translate(410,315)"/>
<path d="M0 0 C14.05889213 1.79475219 14.05889213 1.79475219 20 5 C20 5.66 20 6.32 20 7 C20.88042969 7.04898437 21.76085937 7.09796875 22.66796875 7.1484375 C24.41013672 7.26058594 24.41013672 7.26058594 26.1875 7.375 C27.91033203 7.47941406 27.91033203 7.47941406 29.66796875 7.5859375 C33 8 33 8 35.3938446 9.00970459 C38.14259507 10.05418374 40.10517688 10.25333221 43.03051758 10.25878906 C44.00535599 10.26509338 44.9801944 10.27139771 45.98457336 10.27789307 C47.02735947 10.2738446 48.07014557 10.26979614 49.14453125 10.265625 C50.22828537 10.26753845 51.31203949 10.2694519 52.42863464 10.27142334 C54.7191084 10.27278276 57.00958993 10.26910329 59.30004883 10.26074219 C62.78940353 10.25007064 66.27823973 10.26062988 69.76757812 10.2734375 C71.99739696 10.27211525 74.22721548 10.26955151 76.45703125 10.265625 C77.49374466 10.26967346 78.53045807 10.27372192 79.59858704 10.27789307 C85.44320202 10.24045883 90.37782965 9.566879 96 8 C97.32 8 98.64 8 100 8 C100 8.66 100 9.32 100 10 C99.21753906 10.13277344 98.43507813 10.26554687 97.62890625 10.40234375 C96.61699219 10.57894531 95.60507812 10.75554687 94.5625 10.9375 C93.55316406 11.11152344 92.54382813 11.28554688 91.50390625 11.46484375 C89.0712562 11.74751097 89.0712562 11.74751097 88 13 C86.28681054 13.09881593 84.56955197 13.12798969 82.85351562 13.12939453 C81.75567749 13.13254669 80.65783936 13.13569885 79.5267334 13.13894653 C78.33197388 13.1369223 77.13721436 13.13489807 75.90625 13.1328125 C74.68925415 13.13376923 73.4722583 13.13472595 72.21838379 13.13571167 C69.63924101 13.13639372 67.06009653 13.13453772 64.48095703 13.13037109 C60.51721364 13.12502322 56.55358358 13.13031529 52.58984375 13.13671875 C50.09114558 13.13605797 47.59244748 13.13477682 45.09375 13.1328125 C43.30161072 13.13584885 43.30161072 13.13584885 41.4732666 13.13894653 C40.37542847 13.13579437 39.27759033 13.13264221 38.14648438 13.12939453 C36.68873596 13.12820114 36.68873596 13.12820114 35.20153809 13.12698364 C33 13 33 13 32 12 C30.48530552 11.76807135 28.96245438 11.58784762 27.4375 11.4375 C26.61121094 11.35371094 25.78492188 11.26992188 24.93359375 11.18359375 C24.29550781 11.12300781 23.65742187 11.06242187 23 11 C22.67 10.01 22.34 9.02 22 8 C18.04 7.67 14.08 7.34 10 7 C10 6.34 10 5.68 10 5 C8.906875 4.731875 7.81375 4.46375 6.6875 4.1875 C3.38307337 3.12336261 2.05039578 2.65345336 0 0 Z " fill="#C2C2C2" transform="translate(627,428)"/>
<path d="M0 0 C-6.08071567 4.19450669 -11.1605857 6.5552494 -18.484375 7.578125 C-21.92064514 8.15439391 -24.81623659 9.60361254 -28 11 C-35.47071375 13.32883361 -42.98940864 14.51657171 -50.74389648 15.35375977 C-54.4927651 15.72267928 -54.4927651 15.72267928 -58 17 C-60.729882 17.12379567 -63.43307158 17.18848087 -66.1640625 17.203125 C-67.40136612 17.21167511 -67.40136612 17.21167511 -68.66366577 17.22039795 C-70.42062089 17.22986428 -72.1775939 17.23638839 -73.93457031 17.24023438 C-76.56609625 17.24978619 -79.19678778 17.28072536 -81.828125 17.3125 C-92.44132005 17.37924808 -102.7225937 16.90752389 -113 14 C-113.66 13.34 -114.32 12.68 -115 12 C-114.06760498 12.14074951 -113.13520996 12.28149902 -112.17456055 12.42651367 C-101.36131867 13.96886389 -90.72534553 14.36207673 -79.8125 14.3125 C-78.95627045 14.31034485 -78.10004089 14.3081897 -77.21786499 14.30596924 C-58.42290132 14.2301504 -41.52725691 12.27559168 -23.61328125 6.40234375 C-18.81721836 4.86190368 -13.95296713 3.88996089 -9 3 C-9 2.34 -9 1.68 -9 1 C-3.375 -1.125 -3.375 -1.125 0 0 Z " fill="#5F5F5F" transform="translate(671,537)"/>
<path d="M0 0 C0.33 0 0.66 0 1 0 C1.02749766 1.37488287 1.0466164 2.74993391 1.0625 4.125 C1.07410156 4.89070312 1.08570313 5.65640625 1.09765625 6.4453125 C1 9 1 9 0.50219727 11.69213867 C-0.05078009 15.33447712 -0.12959178 18.79665939 -0.1328125 22.48046875 C-0.13376923 23.17513748 -0.13472595 23.86980621 -0.13571167 24.58552551 C-0.13638824 26.0435902 -0.13457066 27.501658 -0.13037109 28.9597168 C-0.12499081 31.19131182 -0.13034628 33.42270783 -0.13671875 35.65429688 C-0.13605835 37.07552128 -0.13477799 38.49674555 -0.1328125 39.91796875 C-0.13168457 41.20469482 -0.13055664 42.4914209 -0.12939453 43.81713867 C-0.14648148 47.02294103 -0.14648148 47.02294103 1 50 C1.1801068 52.54436585 1.32325951 55.077817 1.4375 57.625 C1.67600884 62.22312072 1.97063843 66.63452707 3.0625 71.125 C3.90432906 74.60456013 4.18228623 77.44541846 4 81 C4.66 81 5.32 81 6 81 C5.67 82.32 5.34 83.64 5 85 C2.19424186 80.96282578 1.22821419 77.1540093 0.5 72.375 C0.38035889 71.62774658 0.26071777 70.88049316 0.13745117 70.1105957 C-0.11551988 68.52915679 -0.36521423 66.94719064 -0.61181641 65.36474609 C-0.98140408 63.11328309 -1.40765468 60.88157759 -1.85546875 58.64453125 C-3.72663096 48.89354108 -4.28460983 39.36704809 -4.3125 29.4375 C-4.31789795 28.26018311 -4.3232959 27.08286621 -4.32885742 25.86987305 C-4.2728941 19.02044856 -3.65428935 12.65219386 -2 6 C-1.34 6 -0.68 6 0 6 C0 4.02 0 2.04 0 0 Z " fill="#7A7A7A" transform="translate(521,237)"/>
<path d="M0 0 C0.99 0 1.98 0 3 0 C3 0.99 3 1.98 3 3 C2.443125 3.04125 1.88625 3.0825 1.3125 3.125 C-1.27440652 4.10382949 -1.94022154 4.93777939 -3.625 7.0625 C-4.40875 8.031875 -5.1925 9.00125 -6 10 C-6.66 10 -7.32 10 -8 10 C-8.66 11.32 -9.32 12.64 -10 14 C-11.98 14 -13.96 14 -16 14 C-16 14.66 -16 15.32 -16 16 C-17.875 18.125 -17.875 18.125 -20 20 C-20.66 20 -21.32 20 -22 20 C-22.2475 20.763125 -22.495 21.52625 -22.75 22.3125 C-24.13989393 25.30077195 -25.38052376 26.11725146 -28 28 C-28.495 29.0209375 -28.495 29.0209375 -29 30.0625 C-30.26229782 32.50820202 -31.54625114 32.89185536 -34 34 C-34.33 34.66 -34.66 35.32 -35 36 C-35.66 36 -36.32 36 -37 36 C-36.34 34.35 -35.68 32.7 -35 31 C-34.34 31 -33.68 31 -33 31 C-33 30.01 -33 29.02 -33 28 C-31.37064759 26.62131719 -29.70250393 25.28725907 -28 24 C-27.67 23.34 -27.34 22.68 -27 22 C-26.34 22 -25.68 22 -25 22 C-25 21.34 -25 20.68 -25 20 C-19.52380952 15 -19.52380952 15 -17 15 C-16.91492188 14.38125 -16.82984375 13.7625 -16.7421875 13.125 C-16 11 -16 11 -14.2578125 9.875 C-13.55398438 9.58625 -12.85015625 9.2975 -12.125 9 C-8.66935512 7.44710807 -7.22657025 6.07478749 -5 3 C-2.3125 2.25 -2.3125 2.25 0 2 C0 1.34 0 0.68 0 0 Z " fill="#DBDBDB" transform="translate(489,207)"/>
<path d="M0 0 C1.65 0 3.3 0 5 0 C5 1.65 5 3.3 5 5 C4.01 5.495 4.01 5.495 3 6 C2.59270772 8.32156597 2.25561323 10.6568787 2 13 C1.34 13 0.68 13 0 13 C-0.1546875 14.5159375 -0.1546875 14.5159375 -0.3125 16.0625 C-1.03704767 20.21218208 -2.22269266 23.21356263 -4 27 C-4.66 27 -5.32 27 -6 27 C-5.47731534 24.23723823 -4.89130413 21.6739124 -4 19 C-3.34 19 -2.68 19 -2 19 C-1.855625 17.783125 -1.71125 16.56625 -1.5625 15.3125 C-1.17219047 12.17329623 -0.67648144 9.0924866 0 6 C-0.53109375 6.28875 -1.0621875 6.5775 -1.609375 6.875 C-2.31578125 7.24625 -3.0221875 7.6175 -3.75 8 C-4.79414062 8.556875 -4.79414062 8.556875 -5.859375 9.125 C-8 10 -8 10 -12 10 C-12 9.34 -12 8.68 -12 8 C-10.56429734 7.18432826 -9.12636566 6.37257907 -7.6875 5.5625 C-6.88699219 5.11003906 -6.08648438 4.65757812 -5.26171875 4.19140625 C-3 3 -3 3 0 2 C0 1.34 0 0.68 0 0 Z " fill="#D8D8D8" transform="translate(768,417)"/>
<path d="M0 0 C0.66 0 1.32 0 2 0 C2.03738281 0.69222656 2.07476562 1.38445312 2.11328125 2.09765625 C2.96067555 14.70887732 5.78639212 26.74315432 9.23046875 38.85546875 C10 42 10 42 10 46 C9.34 46 8.68 46 8 46 C5.41625719 41.61887088 4.64920955 38.10100304 4.24609375 33.1484375 C4.06066931 30.83638119 4.06066931 30.83638119 3 28.125 C1.74017573 24.18804915 1.51792058 20.40365607 1.24609375 16.29296875 C1.24662846 14.03742447 1.24662846 14.03742447 0 13 C-0.07258946 10.81360547 -0.08373783 8.62499611 -0.0625 6.4375 C-0.05347656 5.23996094 -0.04445313 4.04242188 -0.03515625 2.80859375 C-0.02355469 1.88175781 -0.01195312 0.95492188 0 0 Z " fill="#4C4C4C" transform="translate(404,376)"/>
<path d="M0 0 C1.97909398 -0.02686553 3.95828971 -0.04633375 5.9375 -0.0625 C7.03964844 -0.07410156 8.14179687 -0.08570313 9.27734375 -0.09765625 C12 0 12 0 13 1 C15.37825572 1.10097537 17.72678931 1.13971225 20.10546875 1.1328125 C21.18070549 1.13424759 21.18070549 1.13424759 22.27766418 1.13571167 C23.80010058 1.13639379 25.32253986 1.13453731 26.8449707 1.13037109 C29.16038696 1.12506217 31.47560576 1.13029461 33.79101562 1.13671875 C35.27083376 1.13605721 36.75065177 1.13477448 38.23046875 1.1328125 C38.9181987 1.13483673 39.60592865 1.13686096 40.3144989 1.13894653 C44.3175591 1.11974073 48.06775842 0.7246128 52 0 C53.95740193 -0.06388388 55.91670147 -0.08638169 57.875 -0.0625 C58.84179688 -0.05347656 59.80859375 -0.04445313 60.8046875 -0.03515625 C61.52914062 -0.02355469 62.25359375 -0.01195312 63 0 C58.73189404 2.84540398 54.9664769 3.12295781 49.921875 3.14526367 C48.93735352 3.15164352 47.95283203 3.15802338 46.93847656 3.16459656 C45.36018066 3.16626579 45.36018066 3.16626579 43.75 3.16796875 C42.11369629 3.17296135 42.11369629 3.17296135 40.44433594 3.17805481 C38.14128032 3.18311025 35.83821741 3.18546356 33.53515625 3.18530273 C30.01289845 3.18749198 26.49095254 3.20567016 22.96875 3.22460938 C20.72916774 3.22754302 18.48958399 3.22952801 16.25 3.23046875 C15.19780273 3.23765427 14.14560547 3.24483978 13.06152344 3.25224304 C12.07700195 3.24916641 11.09248047 3.24608978 10.078125 3.24291992 C9.21606445 3.24434494 8.35400391 3.24576996 7.46582031 3.24723816 C4.68799719 2.9687167 2.53437913 2.14353582 0 1 C0 0.67 0 0.34 0 0 Z " fill="#424242" transform="translate(660,436)"/>
<path d="M0 0 C0.99 0.33 1.98 0.66 3 1 C3 1.66 3 2.32 3 3 C4.65 3.33 6.3 3.66 8 4 C8 4.66 8 5.32 8 6 C8.99 6.33 9.98 6.66 11 7 C11 7.66 11 8.32 11 9 C11.62648438 9.15855469 12.25296875 9.31710937 12.8984375 9.48046875 C19.65694683 11.40994854 19.65694683 11.40994854 21.5625 14.6875 C21.706875 15.450625 21.85125 16.21375 22 17 C22.66 17 23.32 17 24 17 C24.33 17.99 24.66 18.98 25 20 C23.35 19.67 21.7 19.34 20 19 C20 18.34 20 17.68 20 17 C19.443125 16.9175 18.88625 16.835 18.3125 16.75 C15.30743682 15.77538491 13.42745178 13.99175531 11 12 C10.01 11.67 9.02 11.34 8 11 C6.31288577 9.3540349 4.6454378 7.68762851 3 6 C2.34 5.67 1.68 5.34 1 5 C0.375 2.4375 0.375 2.4375 0 0 Z " fill="#8C8C8C" transform="translate(466,502)"/>
<path d="M0 0 C0.66 0.33 1.32 0.66 2 1 C-0.5654594 3.5654594 -2.47686668 3.54046087 -6 4 C-6 4.66 -6 5.32 -6 6 C-6.84884766 6.16435547 -6.84884766 6.16435547 -7.71484375 6.33203125 C-8.44832031 6.49058594 -9.18179688 6.64914063 -9.9375 6.8125 C-10.66839844 6.96332031 -11.39929688 7.11414063 -12.15234375 7.26953125 C-13.06693359 7.63111328 -13.06693359 7.63111328 -14 8 C-14.33 8.99 -14.66 9.98 -15 11 C-19.21563281 14.90336371 -24.47344258 16.02472516 -30 17 C-30 16.34 -30 15.68 -30 15 C-27.49881715 13.3703727 -24.90043556 11.97337595 -22.28515625 10.53515625 C-19.70760157 9.14137297 -19.70760157 9.14137297 -19 6 C-16.36 6 -13.72 6 -11 6 C-11 5.01 -11 4.02 -11 3 C-9.01432292 2.51171875 -7.02864583 2.0234375 -5.04296875 1.53515625 C-3.34316798 1.08989295 -1.66698046 0.55566015 0 0 Z " fill="#666666" transform="translate(522,190)"/>
<path d="M0 0 C0.66 0.33 1.32 0.66 2 1 C-0.05855327 3.28728141 -1.50990055 4.82406686 -4.4375 5.875 C-7.28105119 6.87761846 -7.28105119 6.87761846 -9.25 9.9375 C-12.31804038 13.93082239 -16.26816541 14.82338997 -21 16 C-21.75152344 16.18949219 -22.50304687 16.37898437 -23.27734375 16.57421875 C-23.84582031 16.71472656 -24.41429687 16.85523438 -25 17 C-25 17.66 -25 18.32 -25 19 C-28.96 19.495 -28.96 19.495 -33 20 C-32.01 19.67 -31.02 19.34 -30 19 C-30 18.34 -30 17.68 -30 17 C-28.5 16.25 -27 15.5 -25.5 14.75 C-24.14068359 14.06744141 -24.14068359 14.06744141 -22.75390625 13.37109375 C-21.0388362 12.51720781 -19.31831719 11.67407386 -17.58984375 10.84765625 C-13.61398728 9.19124932 -13.61398728 9.19124932 -11 6 C-7.79944544 3.86629696 -4.57424846 2.38998551 -1 1 C-0.67 0.67 -0.34 0.34 0 0 Z " fill="#4B4B4B" transform="translate(704,516)"/>
<path d="M0 0 C2.475 0.495 2.475 0.495 5 1 C5 1.66 5 2.32 5 3 C5.99 3 6.98 3 8 3 C8 3.99 8 4.98 8 6 C9.32 6 10.64 6 12 6 C12 6.66 12 7.32 12 8 C12.763125 8.12375 13.52625 8.2475 14.3125 8.375 C17 9 17 9 20 11 C20 11.66 20 12.32 20 13 C22.31 13.33 24.62 13.66 27 14 C27 14.99 27 15.98 27 17 C24.69 16.67 22.38 16.34 20 16 C20 15.34 20 14.68 20 14 C18.35 14 16.7 14 15 14 C14.67 13.01 14.34 12.02 14 11 C11.62374655 9.81608777 11.62374655 9.81608777 9 9 C8.01 8.67 7.02 8.34 6 8 C6 7.01 6 6.02 6 5 C5.34 5 4.68 5 4 5 C4 4.34 4 3.68 4 3 C2.68 2.34 1.36 1.68 0 1 C0 0.67 0 0.34 0 0 Z " fill="#636363" transform="translate(585,403)"/>
<path d="M0 0 C2.04492324 6.8420364 0.20902865 15.32124087 -2 22 C-4 25.0625 -4 25.0625 -6 27 C-6.66 27 -7.32 27 -8 27 C-7.43189471 21.20140805 -6.26320265 16.02313406 -4.4375 10.5 C-4.20353516 9.77296875 -3.96957031 9.0459375 -3.72851562 8.296875 C-3.15867219 6.52919739 -2.58024596 4.76429031 -2 3 C-1.34 3 -0.68 3 0 3 C0 2.01 0 1.02 0 0 Z " fill="#363636" transform="translate(530,207)"/>
<path d="M0 0 C0.33 0.66 0.66 1.32 1 2 C0.59007812 2.44730469 0.18015625 2.89460938 -0.2421875 3.35546875 C-3.72425245 7.21818527 -3.72425245 7.21818527 -6.0625 11.8125 C-7 14 -7 14 -9.5625 15.125 C-10.366875 15.41375 -11.17125 15.7025 -12 16 C-12.33 16.99 -12.66 17.98 -13 19 C-16.0625 20.6875 -16.0625 20.6875 -19 22 C-18.34 20.35 -17.68 18.7 -17 17 C-16.34 17 -15.68 17 -15 17 C-15 16.01 -15 15.02 -15 14 C-14.195625 13.731875 -13.39125 13.46375 -12.5625 13.1875 C-11.716875 12.795625 -10.87125 12.40375 -10 12 C-9.67 11.01 -9.34 10.02 -9 9 C-8.34 9 -7.68 9 -7 9 C-7 8.01 -7 7.02 -7 6 C-6.34 6 -5.68 6 -5 6 C-5 4.35 -5 2.7 -5 1 C-3.35 0.67 -1.7 0.34 0 0 Z " fill="#A4A4A4" transform="translate(742,477)"/>
<path d="M0 0 C0 1.65 0 3.3 0 5 C-0.99 5 -1.98 5 -3 5 C-3.18175781 5.72445312 -3.36351562 6.44890625 -3.55078125 7.1953125 C-4.92167755 12.46799057 -6.30679941 17.25483705 -9 22 C-9.33 21.34 -9.66 20.68 -10 20 C-9.33333333 18 -8.66666667 16 -8 14 C-7.55915591 11.33576831 -7.27811185 8.68841457 -7 6 C-6.01 6 -5.02 6 -4 6 C-4 5.01 -4 4.02 -4 3 C-5.258125 3.165 -6.51625 3.33 -7.8125 3.5 C-10.26456585 3.82158241 -12.51650694 4 -15 4 C-9.29096151 0.54452933 -6.62703209 -0.10688761 0 0 Z " fill="#979797" transform="translate(541,185)"/>
<path d="M0 0 C0.99 0 1.98 0 3 0 C3 0.99 3 1.98 3 3 C3.70125 3.268125 4.4025 3.53625 5.125 3.8125 C8.1649824 5.0681449 11.0727774 6.50235123 14 8 C14 8.66 14 9.32 14 10 C15.299375 9.87625 15.299375 9.87625 16.625 9.75 C20.80399325 10.05955506 22.69462951 11.50260896 26 14 C26.99 14.66 27.98 15.32 29 16 C21.02263478 15.16902446 12.69717076 12.54271932 6 8 C5.67 7.01 5.34 6.02 5 5 C4.01 4.67 3.02 4.34 2 4 C2 3.34 2 2.68 2 2 C1.34 2 0.68 2 0 2 C0 1.34 0 0.68 0 0 Z " fill="#616161" transform="translate(492,522)"/>
<path d="M0 0 C2.475 0.495 2.475 0.495 5 1 C5 1.66 5 2.32 5 3 C5.825 2.9175 6.65 2.835 7.5 2.75 C10.82542521 2.98753037 11.96222496 3.34512346 14.75 4.875 C18.70875248 7.04543572 22.45771125 7.83414195 26.8984375 8.5078125 C29 9 29 9 31 11 C24.2421202 11.37389909 19.11283558 10.91138566 13 8 C11.45119141 7.27490234 11.45119141 7.27490234 9.87109375 6.53515625 C1.16575875 2.33151751 1.16575875 2.33151751 0 0 Z " fill="#373737" transform="translate(521,538)"/>
<path d="M0 0 C0 0.66 0 1.32 0 2 C-1.21816406 2.32613281 -2.43632813 2.65226562 -3.69140625 2.98828125 C-5.31517655 3.42942116 -6.93887044 3.87084239 -8.5625 4.3125 C-9.76229492 4.63250977 -9.76229492 4.63250977 -10.98632812 4.95898438 C-14.71138385 5.97767308 -18.28290444 7.04780537 -21.8125 8.625 C-25.70167537 10.30268349 -28.81518858 10.63291128 -33 11 C-32.195625 10.360625 -31.39125 9.72125 -30.5625 9.0625 C-28.7249496 7.59396498 -28.7249496 7.59396498 -27 6 C-25.31861101 5.67495116 -23.62934619 5.39029638 -21.9375 5.125 C-16.95592867 4.26566279 -12.68713571 2.85869175 -8 1 C-5.15175249 0.30376172 -2.93672546 0 0 0 Z " fill="#535353" transform="translate(756,425)"/>
<path d="M0 0 C0.33 0 0.66 0 1 0 C1.25 7.625 1.25 7.625 -1 11 C-1.39387788 13.32387947 -1.73486085 15.65793749 -2 18 C-2.66 18 -3.32 18 -4 18 C-4 20.64 -4 23.28 -4 26 C-4.99 26 -5.98 26 -7 26 C-7.26294869 20.60955181 -6.49363772 15.81155336 -3.9375 11 C-2.57679791 8.09716888 -2.36484498 5.16198979 -2 2 C-1.34 2 -0.68 2 0 2 C0 1.34 0 0.68 0 0 Z " fill="#C1C1C1" transform="translate(416,302)"/>
<path d="M0 0 C0.33 0.99 0.66 1.98 1 3 C0.34 3 -0.32 3 -1 3 C-1 3.66 -1 4.32 -1 5 C0.65 5.33 2.3 5.66 4 6 C4 6.66 4 7.32 4 8 C4.639375 8.0825 5.27875 8.165 5.9375 8.25 C10.20541517 9.29520372 14.03107667 11.14091826 18 13 C18 13.66 18 14.32 18 15 C19.98 15 21.96 15 24 15 C24 15.66 24 16.32 24 17 C18.45494979 16.55639598 15.53950882 15.09072941 11 12 C7.76961158 11.20929452 7.76961158 11.20929452 5 11 C5 10.34 5 9.68 5 9 C4.113125 8.7525 3.22625 8.505 2.3125 8.25 C-1.10427135 6.96065232 -3.2797748 5.40019871 -6 3 C-5.195625 2.690625 -4.39125 2.38125 -3.5625 2.0625 C-1.10919595 1.23664655 -1.10919595 1.23664655 0 0 Z " fill="#D4D4D4" transform="translate(501,521)"/>
<path d="M0 0 C0.33 0 0.66 0 1 0 C1.06058594 0.7734375 1.12117188 1.546875 1.18359375 2.34375 C1.65892599 8.25249543 2.20914557 14.12508141 3 20 C3.66 20 4.32 20 5 20 C5.53373082 23.24801825 6.04971268 26.49861491 6.5625 29.75 C6.71396484 30.67039062 6.86542969 31.59078125 7.02148438 32.5390625 C7.16005859 33.42851562 7.29863281 34.31796875 7.44140625 35.234375 C7.57232666 36.05131836 7.70324707 36.86826172 7.83813477 37.70996094 C8.00431883 40.06110207 7.70259545 41.76426496 7 44 C2.89808209 29.32054758 -0.63880143 15.35489354 0 0 Z " fill="#C1C1C1" transform="translate(406,374)"/>
<path d="M0 0 C-2.64738916 1.4606285 -3.89448334 2 -7 2 C-7 2.66 -7 3.32 -7 4 C-20.44874715 8.59225513 -20.44874715 8.59225513 -28 8 C-24.49844567 6.11856782 -20.86984318 4.8207619 -17.125 3.5 C-15.93132813 3.0771875 -14.73765625 2.654375 -13.5078125 2.21875 C-12.35023438 1.8165625 -11.19265625 1.414375 -10 1 C-8.36804688 0.41605469 -8.36804688 0.41605469 -6.703125 -0.1796875 C-3.90941293 -1.0274903 -2.68274666 -1.03182564 0 0 Z " fill="#C2C2C2" transform="translate(755,428)"/>
<path d="M0 0 C14.05889213 1.79475219 14.05889213 1.79475219 20 5 C20 5.66 20 6.32 20 7 C20.99 7.33 21.98 7.66 23 8 C18.71 7.67 14.42 7.34 10 7 C10 6.34 10 5.68 10 5 C8.906875 4.731875 7.81375 4.46375 6.6875 4.1875 C3.38307337 3.12336261 2.05039578 2.65345336 0 0 Z " fill="#8F8F8F" transform="translate(627,428)"/>
<path d="M0 0 C1.98 0 3.96 0 6 0 C6.14285714 7.42857143 6.14285714 7.42857143 5 11 C4.34 11 3.68 11 3 11 C2.7834375 12.670625 2.7834375 12.670625 2.5625 14.375 C2 18 2 18 1 20 C0.34 20 -0.32 20 -1 20 C-1 18.35 -1 16.7 -1 15 C-0.34 15 0.32 15 1 15 C1 12.69 1 10.38 1 8 C1.99 7.67 2.98 7.34 4 7 C4 5.35 4 3.7 4 2 C2.35 2 0.7 2 -1 2 C-0.67 1.34 -0.34 0.68 0 0 Z " fill="#252525" transform="translate(769,415)"/>
<path d="M0 0 C4.54677771 6.82016656 9 14.67422447 9 23 C9.66 23 10.32 23 11 23 C11 24.65 11 26.3 11 28 C10.34 28 9.68 28 9 28 C8.03722741 25.64756508 7.07971502 23.29320381 6.125 20.9375 C5.72087891 19.95233398 5.72087891 19.95233398 5.30859375 18.94726562 C3.99078906 15.68489549 2.80221962 12.46045143 1.8671875 9.06640625 C1.31141099 6.14874559 1.31141099 6.14874559 0 5 C-0.04063832 3.33382885 -0.042721 1.66611905 0 0 Z " fill="#BDBDBD" transform="translate(414,419)"/>
<path d="M0 0 C3.58273331 1.65356922 6.80973467 3.67980703 10 6 C10 6.66 10 7.32 10 8 C12.475 8.99 12.475 8.99 15 10 C15 10.66 15 11.32 15 12 C15.99 12 16.98 12 18 12 C18.33 13.65 18.66 15.3 19 17 C17.02 16.01 15.04 15.02 13 14 C13 13.34 13 12.68 13 12 C12.01 11.67 11.02 11.34 10 11 C10 10.34 10 9.68 10 9 C9.01 8.67 8.02 8.34 7 8 C7 7.34 7 6.68 7 6 C6.21625 5.938125 5.4325 5.87625 4.625 5.8125 C3.75875 5.544375 2.8925 5.27625 2 5 C0.6875 2.4375 0.6875 2.4375 0 0 Z " fill="#696969" transform="translate(564,386)"/>
<path d="M0 0 C0.66 0 1.32 0 2 0 C1.35083537 6.00477279 -0.85795003 11.400781 -3 17 C-3.66 17 -4.32 17 -5 17 C-5 19.31 -5 21.62 -5 24 C-5.66 24.33 -6.32 24.66 -7 25 C-6.63176001 18.09232563 -5.76081837 12.3618858 -3 6 C-2.34 6 -1.68 6 -1 6 C-0.67 4.02 -0.34 2.04 0 0 Z " fill="#494949" transform="translate(419,287)"/>
<path d="M0 0 C-6.16210033 4.25064621 -11.39099613 6.70317341 -18.84765625 7.67578125 C-20.97655492 7.77859111 -20.97655492 7.77859111 -22 9 C-23.99958364 9.04080783 -26.00045254 9.04254356 -28 9 C-22.04927183 5.03284789 -16.05831135 3.63020637 -9 3 C-9 2.34 -9 1.68 -9 1 C-3.375 -1.125 -3.375 -1.125 0 0 Z " fill="#717171" transform="translate(671,537)"/>
<path d="M0 0 C3 2 3 2 3.58984375 3.84765625 C3.70457031 4.57855469 3.81929688 5.30945313 3.9375 6.0625 C4.76250827 10.42728735 6.24275827 14.07831794 8.1953125 18.0546875 C9 20 9 20 9 23 C8.34 23 7.68 23 7 23 C7 22.01 7 21.02 7 20 C6.01 20 5.02 20 4 20 C2.90856057 17.81712113 2.77148416 16.35574528 2.5625 13.9375 C2.08462603 9.18959092 1.12780943 4.63168337 0 0 Z " fill="#393939" transform="translate(414,424)"/>
<path d="M0 0 C0.66 0 1.32 0 2 0 C1.85437243 6.84449556 -1.25375843 11.16606805 -6 16 C-6.66 16 -7.32 16 -8 16 C-8.33 16.99 -8.66 17.98 -9 19 C-9.66 19 -10.32 19 -11 19 C-9.77784763 15.52156634 -8.56815239 13.56815239 -6 11 C-5.484375 9.96875 -4.96875 8.9375 -4.4375 7.875 C-3 5 -3 5 -1 4 C-0.34786708 1.97536745 -0.34786708 1.97536745 0 0 Z " fill="#ACACAC" transform="translate(754,456)"/>
<path d="M0 0 C1.91606414 2.8740962 2.97934221 5.59090532 4.14453125 8.8203125 C4.99487687 10.98694655 5.98379115 13.00132398 7.0625 15.0625 C9.37379003 19.56110282 11 23.87401695 11 29 C7.52390134 25.2841704 6.15309557 21.88140821 4.72265625 17.12109375 C4.04970436 14.84858094 4.04970436 14.84858094 2.375 12.5625 C0.25013887 8.60253154 0.24962577 4.43300944 0 0 Z " fill="#AAAAAA" transform="translate(527,323)"/>
<path d="M0 0 C0.66 0.33 1.32 0.66 2 1 C0.8553125 2.0828125 0.8553125 2.0828125 -0.3125 3.1875 C-3.03207252 5.81409241 -3.03207252 5.81409241 -4.5625 8.6875 C-6.16466887 11.26490209 -7.28108556 11.82180374 -10 13 C-10.33 13.66 -10.66 14.32 -11 15 C-11.66 15 -12.32 15 -13 15 C-12.34 13.35 -11.68 11.7 -11 10 C-10.34 10 -9.68 10 -9 10 C-9 9.01 -9 8.02 -9 7 C-7.37064759 5.62131719 -5.70250393 4.28725907 -4 3 C-3.67 2.34 -3.34 1.68 -3 1 C-2.01 0.67 -1.02 0.34 0 0 Z " fill="#B9B9B9" transform="translate(465,228)"/>
<path d="M0 0 C0 0.99 0 1.98 0 3 C-0.66 3 -1.32 3 -2 3 C-2.33 3.99 -2.66 4.98 -3 6 C-3.66 6 -4.32 6 -5 6 C-5 6.99 -5 7.98 -5 9 C-6.1875 10.375 -6.1875 10.375 -8 12 C-8.886875 12.886875 -9.77375 13.77375 -10.6875 14.6875 C-11.450625 15.450625 -12.21375 16.21375 -13 17 C-14.24546405 14.50907189 -13.7767578 13.58919267 -13 11 C-12.01 11 -11.02 11 -10 11 C-10 10.34 -10 9.68 -10 9 C-9.34 8.67 -8.68 8.34 -8 8 C-7.938125 7.401875 -7.87625 6.80375 -7.8125 6.1875 C-6.46737709 2.56601525 -3.3557966 1.70840554 0 0 Z " fill="#4B4B4B" transform="translate(461,229)"/>
<path d="M0 0 C0.66 0 1.32 0 2 0 C2 0.99 2 1.98 2 3 C1.34 3 0.68 3 0 3 C-0.1546875 4.11375 -0.1546875 4.11375 -0.3125 5.25 C-1.04933797 8.1973519 -1.94799142 9.78383074 -4 12 C-4.66 12 -5.32 12 -6 12 C-6 12.99 -6 13.98 -6 15 C-6.66 15 -7.32 15 -8 15 C-8.33 15.99 -8.66 16.98 -9 18 C-9.66 17.67 -10.32 17.34 -11 17 C-10.01 15.02 -9.02 13.04 -8 11 C-7.34 11 -6.68 11 -6 11 C-5.7525 10.29875 -5.505 9.5975 -5.25 8.875 C-3.82819762 5.60485452 -2.12753712 2.858878 0 0 Z " fill="#BCBCBC" transform="translate(445,248)"/>
<path d="M0 0 C0.66 0 1.32 0 2 0 C1.566875 1.8253125 1.566875 1.8253125 1.125 3.6875 C-0.22896164 9.74164275 -1.10847921 15.86368138 -2 22 C-2.66 22 -3.32 22 -4 22 C-4.57184845 13.78762084 -3.26682231 7.53994257 0 0 Z " fill="#D7D7D7" transform="translate(523,221)"/>
<path d="M0 0 C3.10712212 0.78637041 6.09244107 1.63924116 9 3 C10.5625 5.6875 10.5625 5.6875 11 8 C11.66 8 12.32 8 13 8 C13.33 8.99 13.66 9.98 14 11 C12.35 10.67 10.7 10.34 9 10 C9 9.34 9 8.68 9 8 C8.39671875 7.90847656 7.7934375 7.81695313 7.171875 7.72265625 C4.46742737 6.82279508 3.7917686 5.79297981 2.25 3.4375 C1.82203125 2.79683594 1.3940625 2.15617188 0.953125 1.49609375 C0.48132813 0.75552734 0.48132813 0.75552734 0 0 Z " fill="#ABABAB" transform="translate(477,511)"/>
<path d="M0 0 C0.66 0 1.32 0 2 0 C2.67408308 1.26691507 3.33900497 2.53870749 4 3.8125 C4.556875 4.87404297 4.556875 4.87404297 5.125 5.95703125 C6 8 6 8 6 11 C6.66 11 7.32 11 8 11 C9.35439668 13.70879335 9.06501451 16.00933268 9 19 C8.34 19 7.68 19 7 19 C3.78964073 12.87113231 1.85578823 6.62781512 0 0 Z " fill="#4D4D4D" transform="translate(532,334)"/>
<path d="M0 0 C0.33 1.32 0.66 2.64 1 4 C0.34 4 -0.32 4 -1 4 C-0.938125 4.639375 -0.87625 5.27875 -0.8125 5.9375 C-1.07091611 10.15829653 -2.09566123 14.20699604 -4 18 C-4.99 18.33 -5.98 18.66 -7 19 C-6.43736318 12.67033582 -4.65075343 6.78164333 -2 1 C-1.34 0.67 -0.68 0.34 0 0 Z " fill="#C9C9C9" transform="translate(424,283)"/>
<path d="M0 0 C0.99 0 1.98 0 3 0 C3 0.99 3 1.98 3 3 C2.34 3 1.68 3 1 3 C0.731875 4.03125 0.46375 5.0625 0.1875 6.125 C-0.80998897 9.6485042 -2.2661898 12.76880827 -4 16 C-4.66 16 -5.32 16 -6 16 C-6.33 16.99 -6.66 17.98 -7 19 C-7 17.35 -7 15.7 -7 14 C-6.34 14 -5.68 14 -5 14 C-4.34 11.03 -3.68 8.06 -3 5 C-2.34 5 -1.68 5 -1 5 C-0.67 3.35 -0.34 1.7 0 0 Z " fill="#353535" transform="translate(428,268)"/>
<path d="M0 0 C7.83534611 -0.61187085 13.8036691 0.93540281 21 4 C21 4.33 21 4.66 21 5 C15.94031127 5.17151487 12.66764263 5.03461345 8 3 C6.14375 2.7525 6.14375 2.7525 4.25 2.5 C3.1775 2.335 2.105 2.17 1 2 C0.67 1.34 0.34 0.68 0 0 Z " fill="#BFBFBF" transform="translate(539,544)"/>
<path d="M0 0 C0.66 0 1.32 0 2 0 C2 2.64 2 5.28 2 8 C1.01 8.33 0.02 8.66 -1 9 C-1 9.66 -1 10.32 -1 11 C-1.66 11 -2.32 11 -3 11 C-3.33 12.65 -3.66 14.3 -4 16 C-4.66 16 -5.32 16 -6 16 C-6 14.68 -6 13.36 -6 12 C-5.34 12 -4.68 12 -4 12 C-3.71125 10.948125 -3.4225 9.89625 -3.125 8.8125 C-2.22774807 5.77181289 -1.23576581 2.91287656 0 0 Z " fill="#4C4C4C" transform="translate(762,444)"/>
<path d="M0 0 C0.99 0.495 0.99 0.495 2 1 C2 1.66 2 2.32 2 3 C2.66 3 3.32 3 4 3 C6.81763407 5.81763407 7.94608803 7.28566635 8.25 11.3125 C8.1675 12.199375 8.085 13.08625 8 14 C7.34 14 6.68 14 6 14 C2.34163139 9.88433532 0.91695964 5.34893123 0 0 Z " fill="#636363" transform="translate(541,353)"/>
<path d="M0 0 C-0.309375 0.515625 -0.61875 1.03125 -0.9375 1.5625 C-2.18828017 4.1293925 -2.18828017 4.1293925 -2.5 7.6875 C-2.665 8.780625 -2.83 9.87375 -3 11 C-3.99 11.495 -3.99 11.495 -5 12 C-5.66 11.67 -6.32 11.34 -7 11 C-7 11.66 -7 12.32 -7 13 C-8.375 14.625 -8.375 14.625 -10 16 C-10.66 16 -11.32 16 -12 16 C-10.66614356 11.99843068 -8.94567217 9.94567217 -6 7 C-5.63837971 5.67405895 -5.30271961 4.34061543 -5 3 C-2.53571429 0 -2.53571429 0 0 0 Z " fill="#474747" transform="translate(748,472)"/>
<path d="M0 0 C0.33 0 0.66 0 1 0 C1.48181362 2.97875968 1.96050857 5.95796749 2.4375 8.9375 C2.57220703 9.76830078 2.70691406 10.59910156 2.84570312 11.45507812 C3.72384059 16.95950075 4.42374897 22.45568182 5 28 C-1.32375732 20.6540463 -0.29245891 9.16371247 0 0 Z " fill="#D7D7D7" transform="translate(517,281)"/>
<path d="M0 0 C0.99 0 1.98 0 3 0 C3.433125 0.928125 3.86625 1.85625 4.3125 2.8125 C5.7445373 5.51745934 6.85186916 6.9541611 9 9 C9 9.66 9 10.32 9 11 C9.99 11.33 10.98 11.66 12 12 C12 12.66 12 13.32 12 14 C10.68 13.67 9.36 13.34 8 13 C8 12.34 8 11.68 8 11 C7.34 11 6.68 11 6 11 C6 10.01 6 9.02 6 8 C5.34 8 4.68 8 4 8 C3.67 6.68 3.34 5.36 3 4 C2.34 4 1.68 4 1 4 C0.67 2.68 0.34 1.36 0 0 Z " fill="#ABABAB" transform="translate(552,372)"/>
<path d="M0 0 C-4.92121684 4.34225015 -9.61994807 5.87410848 -16 7 C-16 6.34 -16 5.68 -16 5 C-5.41044776 -2.38059701 -5.41044776 -2.38059701 0 0 Z " fill="#C7C7C7" transform="translate(508,200)"/>
<path d="M0 0 C0.33 0 0.66 0 1 0 C1.23243303 4.76487706 0.38670154 8.4547005 -1 13 C-1.70723444 15.99141054 -2.3592052 18.99371802 -3 22 C-3.33 22 -3.66 22 -4 22 C-3.91240742 19.45679484 -3.80546587 16.91683067 -3.6875 14.375 C-3.66494141 13.66214844 -3.64238281 12.94929688 -3.61914062 12.21484375 C-3.37993032 7.47413052 -2.45735603 4.17684645 0 0 Z " fill="#363636" transform="translate(410,315)"/>
<path d="M0 0 C0 0.66 0 1.32 0 2 C-0.99 2 -1.98 2 -3 2 C-3.33 2.99 -3.66 3.98 -4 5 C-4.99 5 -5.98 5 -7 5 C-7 5.66 -7 6.32 -7 7 C-12.19230769 11.73076923 -12.19230769 11.73076923 -16 13 C-16 12.34 -16 11.68 -16 11 C-10.52380952 6 -10.52380952 6 -8 6 C-7.9175 5.38125 -7.835 4.7625 -7.75 4.125 C-7 2 -7 2 -5.125 0.75 C-3 0 -3 0 0 0 Z " fill="#999999" transform="translate(480,216)"/>
<path d="M0 0 C2.625 0.375 2.625 0.375 5 1 C5.34934248 3.93447681 5.51495218 6.14367502 3.95703125 8.734375 C2.625 10.375 2.625 10.375 0 13 C-0.66 13 -1.32 13 -2 13 C-1.49396008 10.83125748 -1.00016187 9.00032373 0 7 C0.99 7 1.98 7 3 7 C3 5.35 3 3.7 3 2 C1.35 2 -0.3 2 -2 2 C-1.34 1.34 -0.68 0.68 0 0 Z " fill="#303030" transform="translate(538,183)"/>
<path d="M0 0 C0.99 0.33 1.98 0.66 3 1 C3 2.65 3 4.3 3 6 C3.66 6 4.32 6 5 6 C9 10.35294118 9 10.35294118 9 14 C8.34 14 7.68 14 7 14 C4 10.53846154 4 10.53846154 4 8 C3.01 7.67 2.02 7.34 1 7 C0.67 4.69 0.34 2.38 0 0 Z " fill="#636363" transform="translate(428,455)"/>
<path d="M0 0 C6.70518586 -0.19818283 12.65176798 -0.30844801 19 2 C19 2.33 19 2.66 19 3 C16.77110504 3.05428973 14.54182529 3.09292338 12.3125 3.125 C10.45044922 3.15980469 10.45044922 3.15980469 8.55078125 3.1953125 C5.18762143 3.01032021 3.0014413 2.45767895 0 1 C0 0.67 0 0.34 0 0 Z " fill="#4F4F4F" transform="translate(660,436)"/>
<path d="M0 0 C1.32 0 2.64 0 4 0 C4 0.66 4 1.32 4 2 C3.01 2 2.02 2 1 2 C0.67 2.99 0.34 3.98 0 5 C-2.58072903 7.32265612 -3.45176068 8 -7 8 C-7 7.01 -7 6.02 -7 5 C-6.34 5 -5.68 5 -5 5 C-4.67 4.01 -4.34 3.02 -4 2 C-2.68 2 -1.36 2 0 2 C0 1.34 0 0.68 0 0 Z " fill="#C4C4C4" transform="translate(706,511)"/>
<path d="M0 0 C0.99 0.495 0.99 0.495 2 1 C2 1.66 2 2.32 2 3 C2.99 3 3.98 3 5 3 C5 3.66 5 4.32 5 5 C5.99 5.33 6.98 5.66 8 6 C8 6.99 8 7.98 8 9 C8.66 9 9.32 9 10 9 C10.33 9.99 10.66 10.98 11 12 C7.83987387 11.66141506 7.04567887 11.05398412 4.9375 8.5625 C4.298125 7.716875 3.65875 6.87125 3 6 C2.01 5.34 1.02 4.68 0 4 C0 2.68 0 1.36 0 0 Z " fill="#6B6B6B" transform="translate(442,477)"/>
<path d="M0 0 C1.32 0 2.64 0 4 0 C4 0.66 4 1.32 4 2 C6.31 2.33 8.62 2.66 11 3 C11.33 3.99 11.66 4.98 12 6 C12.99 6.33 13.98 6.66 15 7 C12 8 12 8 9 7 C9 6.34 9 5.68 9 5 C8.443125 4.87625 7.88625 4.7525 7.3125 4.625 C4.77885636 3.94023145 2.42078968 3.00866237 0 2 C0 1.34 0 0.68 0 0 Z " fill="#4B4B4B" transform="translate(612,420)"/>
<path d="M0 0 C0.66 0.33 1.32 0.66 2 1 C-3.75 6 -3.75 6 -6 6 C-6 6.66 -6 7.32 -6 8 C-8.64 8.33 -11.28 8.66 -14 9 C-13.01 8.67 -12.02 8.34 -11 8 C-11 7.34 -11 6.68 -11 6 C-10.28972656 5.65066406 -9.57945312 5.30132813 -8.84765625 4.94140625 C-7.92855469 4.48636719 -7.00945313 4.03132812 -6.0625 3.5625 C-5.14597656 3.11003906 -4.22945312 2.65757812 -3.28515625 2.19140625 C-1.09471096 1.19474606 -1.09471096 1.19474606 0 0 Z " fill="#676767" transform="translate(685,527)"/>
<path d="M0 0 C0.33 0 0.66 0 1 0 C1.28875 1.093125 1.5775 2.18625 1.875 3.3125 C2.81893204 7.04013845 2.81893204 7.04013845 5 10 C5.4140625 12.26171875 5.4140625 12.26171875 5.625 14.6875 C5.69976563 15.49574219 5.77453125 16.30398438 5.8515625 17.13671875 C5.92503906 18.05904297 5.92503906 18.05904297 6 19 C4.51171875 17.73046875 4.51171875 17.73046875 3 16 C2.8125 12.3125 2.8125 12.3125 3 9 C2.01 8.67 1.02 8.34 0 8 C0 5.36 0 2.72 0 0 Z " fill="#DBDBDB" transform="translate(522,312)"/>
<path d="M0 0 C0.99 0 1.98 0 3 0 C3 0.66 3 1.32 3 2 C2.34 2 1.68 2 1 2 C0.896875 3.010625 0.79375 4.02125 0.6875 5.0625 C-0.03704767 9.21218208 -1.22269266 12.21356263 -3 16 C-3.66 16 -4.32 16 -5 16 C-4.47731534 13.23723823 -3.89130413 10.6739124 -3 8 C-2.34 8 -1.68 8 -1 8 C-0.67 5.36 -0.34 2.72 0 0 Z " fill="#C1C1C1" transform="translate(767,428)"/>
<path d="M0 0 C0.99 0 1.98 0 3 0 C2.44894091 3.9492568 1.61064629 7.34920174 0 11 C-0.66 11 -1.32 11 -2 11 C-2.19622241 6.78121808 -1.80230168 3.82989106 0 0 Z " fill="#CACACA" transform="translate(530,199)"/>
<path d="M0 0 C0 1.65 0 3.3 0 5 C-0.66 5 -1.32 5 -2 5 C-2 3.68 -2 2.36 -2 1 C-2.68707031 1.2165625 -3.37414062 1.433125 -4.08203125 1.65625 C-5.43361328 2.07390625 -5.43361328 2.07390625 -6.8125 2.5 C-8.15248047 2.91765625 -8.15248047 2.91765625 -9.51953125 3.34375 C-12 4 -12 4 -15 4 C-9.29096151 0.54452933 -6.62703209 -0.10688761 0 0 Z " fill="#6E6E6E" transform="translate(541,185)"/>
<path d="M0 0 C2.475 0.99 2.475 0.99 5 2 C5 2.66 5 3.32 5 4 C7.31 4.33 9.62 4.66 12 5 C12 5.99 12 6.98 12 8 C5.8771271 7.75988734 5.8771271 7.75988734 3.421875 5.6328125 C0 1.52262931 0 1.52262931 0 0 Z " fill="#3A3A3A" transform="translate(600,412)"/>
<path d="M0 0 C2.31 0.33 4.62 0.66 7 1 C6.34 1.66 5.68 2.32 5 3 C3.68 3 2.36 3 1 3 C1 3.66 1 4.32 1 5 C-0.65 5.33 -2.3 5.66 -4 6 C-4 5.34 -4 4.68 -4 4 C-3.34 4 -2.68 4 -2 4 C-1.34 2.68 -0.68 1.36 0 0 Z " fill="#D6D6D6" transform="translate(661,535)"/>
<path d="M0 0 C0.66 0 1.32 0 2 0 C1.1875 1.9375 1.1875 1.9375 0 4 C-0.99 4.33 -1.98 4.66 -3 5 C-3 5.99 -3 6.98 -3 8 C-4.98 8.33 -6.96 8.66 -9 9 C-6.90319377 4.80638753 -5.39699222 3.50423418 -1 2 C-0.67 1.34 -0.34 0.68 0 0 Z " fill="#404040" transform="translate(721,502)"/>
<path d="M0 0 C2.64 0 5.28 0 8 0 C8 0.99 8 1.98 8 3 C7.01 3 6.02 3 5 3 C5 5.64 5 8.28 5 11 C4.67 11 4.34 11 4 11 C4 8.03 4 5.06 4 2 C2.35 2 0.7 2 -1 2 C-0.67 1.34 -0.34 0.68 0 0 Z " fill="#D9D9D9" transform="translate(529,188)"/>
<path d="M0 0 C-0.309375 0.598125 -0.61875 1.19625 -0.9375 1.8125 C-2.10209704 4.08956772 -2.10209704 4.08956772 -3 7 C-6.0625 8.6875 -6.0625 8.6875 -9 10 C-8.34 8.35 -7.68 6.7 -7 5 C-6.34 5 -5.68 5 -5 5 C-5 4.01 -5 3.02 -5 2 C-2 0 -2 0 0 0 Z " fill="#CDCDCD" transform="translate(732,489)"/>
<path d="M0 0 C3.96 0.33 7.92 0.66 12 1 C10 3 10 3 7.3984375 3.1953125 C6.40070312 3.17210937 5.40296875 3.14890625 4.375 3.125 C2.87066406 3.09792969 2.87066406 3.09792969 1.3359375 3.0703125 C0.56507813 3.04710937 -0.20578125 3.02390625 -1 3 C-0.67 2.01 -0.34 1.02 0 0 Z " fill="#191919" transform="translate(713,433)"/>
<path d="M0 0 C1.134375 0.020625 2.26875 0.04125 3.4375 0.0625 C2.7775 0.7225 2.1175 1.3825 1.4375 2.0625 C0.4475 2.0625 -0.5425 2.0625 -1.5625 2.0625 C-1.5625 2.7225 -1.5625 3.3825 -1.5625 4.0625 C-4.2025 4.3925 -6.8425 4.7225 -9.5625 5.0625 C-8.758125 4.423125 -7.95375 3.78375 -7.125 3.125 C-3.31467391 0.05815217 -3.31467391 0.05815217 0 0 Z " fill="#3A3A3A" transform="translate(732.5625,430.9375)"/>
<path d="M0 0 C0.33 0 0.66 0 1 0 C1.16682272 4.92127034 1.24828052 8.50343896 -1 13 C-1.66 13 -2.32 13 -3 13 C-3 11.35 -3 9.7 -3 8 C-2.34 8 -1.68 8 -1 8 C-1.020625 6.865625 -1.04125 5.73125 -1.0625 4.5625 C-1 1 -1 1 0 0 Z " fill="#555555" transform="translate(771,422)"/>
<path d="M0 0 C0.66 0 1.32 0 2 0 C2.02689216 1.47906892 2.04634621 2.95827483 2.0625 4.4375 C2.07410156 5.26121094 2.08570313 6.08492188 2.09765625 6.93359375 C2 9 2 9 1 10 C0.63239269 12.32817964 0.29758419 14.6618385 0 17 C-0.33 17 -0.66 17 -1 17 C-1.12036664 11.22240116 -0.8320582 5.72040011 0 0 Z " fill="#E1E1E1" transform="translate(409,328)"/>
<path d="M0 0 C0.99 0 1.98 0 3 0 C3 0.66 3 1.32 3 2 C2.01 2.495 2.01 2.495 1 3 C0.505 4.155 0.01 5.31 -0.5 6.5 C-2 10 -2 10 -4 11 C-4 9.35 -4 7.7 -4 6 C-3.34 6 -2.68 6 -2 6 C-1.855625 5.195625 -1.71125 4.39125 -1.5625 3.5625 C-1 1 -1 1 0 0 Z " fill="#4D4D4D" transform="translate(436,257)"/>
<path d="M0 0 C0.33 0 0.66 0 1 0 C1.2358396 5.77807024 0.86783046 10.51324804 -1 16 C-1.33 16 -1.66 16 -2 16 C-2 12.7 -2 9.4 -2 6 C-1.34 6 -0.68 6 0 6 C0 4.02 0 2.04 0 0 Z " fill="#686868" transform="translate(521,237)"/>
<path d="M0 0 C0.99 0.33 1.98 0.66 3 1 C3.33 2.98 3.66 4.96 4 7 C4.66 7 5.32 7 6 7 C6 8.65 6 10.3 6 12 C5.34 12 4.68 12 4 12 C3.3291288 10.3767313 2.66342971 8.75132422 2 7.125 C1.62875 6.22007812 1.2575 5.31515625 0.875 4.3828125 C0 2 0 2 0 0 Z " fill="#ABABAB" transform="translate(419,435)"/>
<path d="M0 0 C-0.33 0.99 -0.66 1.98 -1 3 C-1.66 2.814375 -2.32 2.62875 -3 2.4375 C-8.0736449 1.69759345 -13.08258199 2.56575308 -18 4 C-16.00794157 1.13641601 -14.76982413 0.95780109 -11.25 0.3125 C-7.48952886 -0.03569177 -3.7739123 -0.07862317 0 0 Z " fill="#151515" transform="translate(630,551)"/>
<path d="M0 0 C3.63 0 7.26 0 11 0 C6.12206417 3.25195722 1.77608621 3.11325659 -4 3 C-2.68 2.67 -1.36 2.34 0 2 C0 1.34 0 0.68 0 0 Z " fill="#848484" transform="translate(712,436)"/>
<path d="M0 0 C3.24745514 4.13312472 5 6.63932628 5 12 C4.34 12 3.68 12 3 12 C0.58314288 7.77050005 -0.34833144 4.87664009 0 0 Z " fill="#3B3B3B" transform="translate(409,410)"/>
<path d="M0 0 C2.475 0.495 2.475 0.495 5 1 C5 1.66 5 2.32 5 3 C5.928125 2.938125 6.85625 2.87625 7.8125 2.8125 C11 3 11 3 12.69921875 4.51171875 C13.12847656 5.00285156 13.55773437 5.49398437 14 6 C4.82713348 4.66958425 4.82713348 4.66958425 1.375 1.875 C0.92125 1.25625 0.4675 0.6375 0 0 Z " fill="#737373" transform="translate(521,538)"/>
<path d="M0 0 C1.65 0 3.3 0 5 0 C5 1.65 5 3.3 5 5 C4.67 4.01 4.34 3.02 4 2 C3.4225 2.515625 2.845 3.03125 2.25 3.5625 C0 5 0 5 -2.25 4.6875 C-2.8275 4.460625 -3.405 4.23375 -4 4 C-2.68 3.34 -1.36 2.68 0 2 C0 1.34 0 0.68 0 0 Z " fill="#858585" transform="translate(768,417)"/>
<path d="M0 0 C0.99 0.33 1.98 0.66 3 1 C0.52414762 3.65269897 -1.59026101 5.68010103 -5 7 C-5.99 7 -6.98 7 -8 7 C-8 6.34 -8 5.68 -8 5 C-7.01 5 -6.02 5 -5 5 C-5 4.34 -5 3.68 -5 3 C-3.35 2.67 -1.7 2.34 0 2 C0 1.34 0 0.68 0 0 Z " fill="#383838" transform="translate(481,211)"/>
<path d="M0 0 C2.97 0.495 2.97 0.495 6 1 C6 1.66 6 2.32 6 3 C6.66 3 7.32 3 8 3 C8.33 3.99 8.66 4.98 9 6 C7.68 5.67 6.36 5.34 5 5 C5 4.34 5 3.68 5 3 C3.35 3 1.7 3 0 3 C0 2.01 0 1.02 0 0 Z " fill="#2D2D2D" transform="translate(486,521)"/>
<path d="M0 0 C0.66 0 1.32 0 2 0 C2 0.99 2 1.98 2 3 C2.66 3 3.32 3 4 3 C4.33 4.65 4.66 6.3 5 8 C3.35 7.67 1.7 7.34 0 7 C0 4.69 0 2.38 0 0 Z " fill="#575757" transform="translate(437,469)"/>
<path d="M0 0 C2 0 2 0 3.625 1.375 C5 3 5 3 5 5 C5.99 5 6.98 5 8 5 C8 5.99 8 6.98 8 8 C5.6875 7.8125 5.6875 7.8125 3 7 C0 2.96551724 0 2.96551724 0 0 Z " fill="#9E9E9E" transform="translate(453,489)"/>
<path d="M0 0 C0.33 0.66 0.66 1.32 1 2 C-0.28965176 3.37562854 -1.62689293 4.70766393 -3 6 C-3.66 6 -4.32 6 -5 6 C-5 4.35 -5 2.7 -5 1 C-3.35 0.67 -1.7 0.34 0 0 Z " fill="#C2C2C2" transform="translate(742,477)"/>
<path d="M0 0 C0.66 0 1.32 0 2 0 C1.95875 0.763125 1.9175 1.52625 1.875 2.3125 C1.77919176 5.22718416 1.77919176 5.22718416 4 8 C3.625 10.1875 3.625 10.1875 3 12 C2.30062798 10.5682384 1.61587282 9.12932968 0.9375 7.6875 C0.55464844 6.88699219 0.17179687 6.08648437 -0.22265625 5.26171875 C-1 3 -1 3 0 0 Z " fill="#D7D7D7" transform="translate(426,444)"/>
<path d="M0 0 C0 0.99 0 1.98 0 3 C-3.08809695 4.76462683 -4.23312136 5 -8 5 C-8 4.34 -8 3.68 -8 3 C-2.25 0 -2.25 0 0 0 Z " fill="#C0C0C0" transform="translate(764,422)"/>
<path d="M0 0 C0.66 0 1.32 0 2 0 C2.67408308 1.26691507 3.33900497 2.53870749 4 3.8125 C4.556875 4.87404297 4.556875 4.87404297 5.125 5.95703125 C6 8 6 8 6 11 C5.34 11 4.68 11 4 11 C3.32880451 9.5437455 2.66318193 8.08492133 2 6.625 C1.62875 5.81289063 1.2575 5.00078125 0.875 4.1640625 C0 2 0 2 0 0 Z " fill="#323232" transform="translate(532,334)"/>
<path d="M0 0 C0.33 0.99 0.66 1.98 1 3 C0.195625 3.45375 -0.60875 3.9075 -1.4375 4.375 C-4.08856572 5.74725665 -4.08856572 5.74725665 -5 8 C-5.66 8 -6.32 8 -7 8 C-5.98823563 4.59679258 -5.35156418 3.24274669 -2.375 1.1875 C-1.59125 0.795625 -0.8075 0.40375 0 0 Z " fill="#D2D2D2" transform="translate(459,235)"/>
<path d="M0 0 C-2.5654594 2.5654594 -4.47686668 2.54046087 -8 3 C-8 3.66 -8 4.32 -8 5 C-9.32 4.67 -10.64 4.34 -12 4 C-3.13924051 -1.56962025 -3.13924051 -1.56962025 0 0 Z " fill="#939393" transform="translate(524,191)"/>
<path d="M0 0 C0.66 0 1.32 0 2 0 C2.33 1.65 2.66 3.3 3 5 C3.66 5 4.32 5 5 5 C5 5.99 5 6.98 5 8 C4.01 7.67 3.02 7.34 2 7 C2 6.34 2 5.68 2 5 C1.34 5 0.68 5 0 5 C0 3.35 0 1.7 0 0 Z " fill="#D2D2D2" transform="translate(431,456)"/>
<path d="M0 0 C0.99 0 1.98 0 3 0 C3.66 2.31 4.32 4.62 5 7 C3.0625 6.3125 3.0625 6.3125 1 5 C0.25 2.375 0.25 2.375 0 0 Z " fill="#555555" transform="translate(423,447)"/>
<path d="M0 0 C0.33 0 0.66 0 1 0 C0.67 3.63 0.34 7.26 0 11 C-0.66 11 -1.32 11 -2 11 C-2.28571429 3.57142857 -2.28571429 3.57142857 0 0 Z " fill="#C1C1C1" transform="translate(521,232)"/>
<path d="M0 0 C0 0.99 0 1.98 0 3 C-0.66 3 -1.32 3 -2 3 C-2.33 3.99 -2.66 4.98 -3 6 C-5.0625 6.6875 -5.0625 6.6875 -7 7 C-7 6.01 -7 5.02 -7 4 C-4.69 2.68 -2.38 1.36 0 0 Z " fill="#313131" transform="translate(461,229)"/>
<path d="M0 0 C-0.33 1.98 -0.66 3.96 -1 6 C-2.65 6 -4.3 6 -6 6 C-6 4 -6 4 -4.125 1.875 C-2 0 -2 0 0 0 Z " fill="#EAEAEA" transform="translate(473,223)"/>
<path d="M0 0 C-6.75 4 -6.75 4 -9 4 C-9 3.01 -9 2.02 -9 1 C-5.57367167 -0.61798838 -3.61944899 -1.34053666 0 0 Z " fill="#393939" transform="translate(765,421)"/>
<path d="M0 0 C2.475 0.495 2.475 0.495 5 1 C5 1.66 5 2.32 5 3 C5.99 3 6.98 3 8 3 C8 3.99 8 4.98 8 6 C6.68 5.67 5.36 5.34 4 5 C4 4.34 4 3.68 4 3 C2.68 2.34 1.36 1.68 0 1 C0 0.67 0 0.34 0 0 Z " fill="#333333" transform="translate(585,403)"/>
<path d="M0 0 C0.66 0 1.32 0 2 0 C1.67 1.65 1.34 3.3 1 5 C0.01 5.33 -0.98 5.66 -2 6 C-2.33 6.99 -2.66 7.98 -3 9 C-3 7.35 -3 5.7 -3 4 C-2.34 4 -1.68 4 -1 4 C-0.67 2.68 -0.34 1.36 0 0 Z " fill="#464646" transform="translate(424,278)"/>
<path d="M0 0 C0.66 0 1.32 0 2 0 C1.67 2.31 1.34 4.62 1 7 C0.01 7.33 -0.98 7.66 -2 8 C-2.33 8.66 -2.66 9.32 -3 10 C-2.21302675 6.58978257 -1.12880057 3.31114834 0 0 Z " fill="#B1B1B1" transform="translate(429,271)"/>
<path d="M0 0 C0.99 0 1.98 0 3 0 C3 0.99 3 1.98 3 3 C-1.455 4.485 -1.455 4.485 -6 6 C-5.67 5.01 -5.34 4.02 -5 3 C-3.35 2.67 -1.7 2.34 0 2 C0 1.34 0 0.68 0 0 Z " fill="#939393" transform="translate(489,207)"/>
<path d="M0 0 C0.99 0.33 1.98 0.66 3 1 C-0.79692186 3.82561627 -3.18569279 5.56638908 -8 5 C-7.34 4.34 -6.68 3.68 -6 3 C-4.68 3 -3.36 3 -2 3 C-2 2.34 -2 1.68 -2 1 C-1.34 0.67 -0.68 0.34 0 0 Z " fill="#E1E1E1" transform="translate(518,193)"/>
<path d="M0 0 C4.6875 0.78125 4.6875 0.78125 9.375 1.5625 C10.674375 1.7790625 10.674375 1.7790625 12 2 C12 2.33 12 2.66 12 3 C10.56260487 3.02712066 9.12506137 3.04645067 7.6875 3.0625 C6.48673828 3.07990234 6.48673828 3.07990234 5.26171875 3.09765625 C3 3 3 3 0 2 C0 1.34 0 0.68 0 0 Z " fill="#292929" transform="translate(552,549)"/>
<path d="M0 0 C-0.99 0 -1.98 0 -3 0 C-3 0.66 -3 1.32 -3 2 C-4.98 2.33 -6.96 2.66 -9 3 C-9 2.01 -9 1.02 -9 0 C-5.62182575 -0.84454356 -3.32534757 -1.10844919 0 0 Z " fill="#D1D1D1" transform="translate(677,533)"/>
<path d="M0 0 C0.66 0 1.32 0 2 0 C2 2.64 2 5.28 2 8 C1.01 8.33 0.02 8.66 -1 9 C-0.67 6.03 -0.34 3.06 0 0 Z " fill="#343434" transform="translate(762,444)"/>
<path d="M0 0 C2.31 0.33 4.62 0.66 7 1 C6.67 2.65 6.34 4.3 6 6 C5.34 6 4.68 6 4 6 C0 1.41176471 0 1.41176471 0 0 Z " fill="#303030" transform="translate(560,380)"/>
<path d="M0 0 C0.33 0 0.66 0 1 0 C1.25 2.75 1.25 2.75 1 6 C-1 8.375 -1 8.375 -3 10 C-2.69201674 8.51988629 -2.378482 7.04092675 -2.0625 5.5625 C-1.88847656 4.73878906 -1.71445312 3.91507812 -1.53515625 3.06640625 C-1 1 -1 1 0 0 Z " fill="#202020" transform="translate(416,293)"/>
<path d="M0 0 C0.66 0 1.32 0 2 0 C1.34 3.3 0.68 6.6 0 10 C-0.33 10 -0.66 10 -1 10 C-1.125 2.25 -1.125 2.25 0 0 Z " fill="#CDCDCD" transform="translate(526,210)"/>
<path d="M0 0 C0.66 0.33 1.32 0.66 2 1 C1.67 1.66 1.34 2.32 1 3 C0.34 3 -0.32 3 -1 3 C-1.33 3.99 -1.66 4.98 -2 6 C-3.32 5.34 -4.64 4.68 -6 4 C-4.02 2.68 -2.04 1.36 0 0 Z " fill="#181818" transform="translate(667,538)"/>
<path d="M0 0 C0.33 1.32 0.66 2.64 1 4 C0.34 4 -0.32 4 -1 4 C-1.66 5.65 -2.32 7.3 -3 9 C-4 7 -4 7 -3.1875 3.9375 C-2 1 -2 1 0 0 Z " fill="#9F9F9F" transform="translate(424,283)"/>
<path d="M0 0 C1.32 0 2.64 0 4 0 C4 0.66 4 1.32 4 2 C3.34 2 2.68 2 2 2 C1.67 2.99 1.34 3.98 1 5 C0.34 5 -0.32 5 -1 5 C-0.67 3.35 -0.34 1.7 0 0 Z " fill="#A8A8A8" transform="translate(719,500)"/>
<path d="M0 0 C0.6875 1.625 0.6875 1.625 1 4 C-0.4375 7.25 -0.4375 7.25 -2 10 C-2.93423645 6.98968256 -3.04449911 6.13349732 -2 3 C-1.34 3 -0.68 3 0 3 C0 2.01 0 1.02 0 0 Z " fill="#646464" transform="translate(530,207)"/>
<path d="M0 0 C0.66 0.33 1.32 0.66 2 1 C0.1875 3 0.1875 3 -2 5 C-2.99 5 -3.98 5 -5 5 C-5 4.34 -5 3.68 -5 3 C-2.625 1.3125 -2.625 1.3125 0 0 Z " fill="#878787" transform="translate(497,202)"/>
<path d="M0 0 C1.65 0 3.3 0 5 0 C-0.14285714 5.57142857 -0.14285714 5.57142857 -4 6 C-3.525625 5.566875 -3.05125 5.13375 -2.5625 4.6875 C-0.76313043 2.97690387 -0.76313043 2.97690387 0 0 Z " fill="#3F3F3F" transform="translate(503,196)"/>
</svg>
