<svg viewBox="0 0 24 24" xmlns="http://www.w3.org/2000/svg" xmlns:xlink="http://www.w3.org/1999/xlink" id="newspaper" overflow="hidden"><path d="M17 11 16 11C15.4477 11 15 11.4477 15 12 15 12.5523 15.4477 13 16 13L17 13C17.5523 13 18 12.5523 18 12 18 11.4477 17.5523 11 17 11ZM17 15 16 15C15.4477 15 15 15.4477 15 16 15 16.5523 15.4477 17 16 17L17 17C17.5523 17 18 16.5523 18 16 18 15.4477 17.5523 15 17 15ZM11 9 17 9C17.5523 9 18 8.55229 18 8 18 7.44772 17.5523 7 17 7L11 7C10.4477 7 10 7.44772 10 8 10 8.55229 10.4477 9 11 9ZM21 3 7 3C6.44772 3 6 3.44772 6 4L6 7 3 7C2.44772 7 2 7.44772 2 8L2 18C2 19.6569 3.34315 21 5 21L18 21C20.2091 21 22 19.2091 22 17L22 4C22 3.44772 21.5523 3 21 3ZM6 18C6 18.5523 5.55228 19 5 19 4.44772 19 4 18.5523 4 18L4 9 6 9ZM20 17C20 18.1046 19.1046 19 18 19L7.82 19C7.93642 18.6793 7.9973 18.3411 8 18L8 5 20 5ZM11 13 12 13C12.5523 13 13 12.5523 13 12 13 11.4477 12.5523 11 12 11L11 11C10.4477 11 10 11.4477 10 12 10 12.5523 10.4477 13 11 13ZM11 17 12 17C12.5523 17 13 16.5523 13 16 13 15.4477 12.5523 15 12 15L11 15C10.4477 15 10 15.4477 10 16 10 16.5523 10.4477 17 11 17Z" fill="#FFFFFF"/></svg>