<svg viewBox="0 0 24 24" xmlns="http://www.w3.org/2000/svg" xmlns:xlink="http://www.w3.org/1999/xlink" id="user" overflow="hidden"><path d="M15.71 12.71C18.3143 10.661 18.7645 6.8888 16.7155 4.2845 14.6665 1.68021 10.8943 1.23003 8.29 3.27901 5.6857 5.32799 5.23553 9.10021 7.2845 11.7045 7.57863 12.0783 7.91616 12.4159 8.29 12.71 4.8671 14.0813 2.47662 17.2251 2.07 20.89 2.00925 21.4423 2.40772 21.9392 2.96 22 3.51228 22.0608 4.00925 21.6623 4.07 21.11 4.56321 16.7193 8.52236 13.5598 12.913 14.053 16.6241 14.4699 19.5531 17.3989 19.97 21.11 20.0263 21.6189 20.458 22.0031 20.97 22L21.08 22C21.6256 21.9372 22.0185 21.4461 21.96 20.9 21.5514 17.2243 19.1475 14.0742 15.71 12.71ZM12 12C9.79086 12 8 10.2091 8 8 8 5.79086 9.79086 4 12 4 14.2091 4 16 5.79086 16 8 16 10.2091 14.2091 12 12 12Z" fill="#FFFFFF"/></svg>